<svg width="35" height="24" viewBox="0 0 35 24" fill="none" xmlns="http://www.w3.org/2000/svg">
<rect x="0.5" y="0.5" width="34" height="23" rx="3.5" fill="white" stroke="#D9D9D9"/>
<path fill-rule="evenodd" clip-rule="evenodd" d="M9.51367 4.95508H17.8423C23.5019 4.95508 25.6767 8.04802 25.6767 11.9575C25.6767 16.634 22.6369 18.9847 17.8423 18.9847H9.51367V4.95508ZM10.3044 5.79641V18.1929H17.8423C22.3897 18.1929 24.8611 16.065 24.8611 11.9823C24.8611 7.77589 22.1919 5.79641 17.8423 5.79641H10.3044ZM12.5288 12.205C13.3614 12.205 14.0364 11.5292 14.0364 10.6956C14.0364 9.86203 13.3614 9.18626 12.5288 9.18626C11.6962 9.18626 11.0212 9.86203 11.0212 10.6956C11.0212 11.5292 11.6962 12.205 12.5288 12.205ZM11.3179 12.8483H13.7399V17.1537H11.3179V12.8483Z" fill="black"/>
<path fill-rule="evenodd" clip-rule="evenodd" d="M22.1183 9.31031H22.8103V11.3888H23.8236C23.5517 7.603 20.5613 6.76172 17.8427 6.76172H14.9512V9.31031H15.3713C16.1622 9.31031 16.6317 9.82992 16.6317 10.6959C16.6317 11.562 16.1622 12.0816 15.396 12.0816H14.9512V17.154H17.8427C22.2666 17.154 23.7741 15.1003 23.8483 12.0816H22.1183V9.31031ZM18.7819 11.3888V12.0816H17.0519V9.31031H18.7324V10.0031H17.7439V10.3248H18.683V11.0176H17.7686V11.3888H18.7819ZM19.0784 12.0816L19.9186 9.31031H20.9072L21.7475 12.0816H21.0308L20.8825 11.562H19.9681L19.8198 12.0816H19.0784ZM20.1736 10.8444H20.1658V10.8691L20.1736 10.8444ZM20.1736 10.8444H20.6601L20.4377 10.0773H20.413L20.1736 10.8444ZM14.9512 11.3887V10.0031H15.3713C15.6432 10.0031 15.9397 10.0773 15.9397 10.6959C15.9397 11.3145 15.6679 11.3887 15.3713 11.3887H14.9512Z" fill="#D50072"/>
</svg>
